:SAMPLES-PER-SECOND 24
:FULLY-SPECIFIED
:DEGREES
22
root  -3.15828 40.8203 11.4508 102.784 34.9659 95.4271
RightUpLeg  -11.1201 -18.6409 -40.479
RightLeg  12.3425 10.4883 -2.78021
RightFoot  -2.79171 1.09496 -14.9024
RightToes  -1.74623e-010 0 -2.59999e-017
Spine  8.15998 3.11697 11.3166
Spine1  8.10131 15.4318 -39.4087
HEad  4.66419 46.8737 -31.1618
LeftShoulder1  2.64671 -3.93252 -29.5591
LeftArm  -17.972 23.5686 -14.2088
LeftForeArm  131.779 -64.3491 -155.553
LeftHand  -0.421831 3.47151 25.2473
RightShoulder  1.58306 4.39892 13.0729
RightArm  70.23 46.3399 109.733
RightForeArm  60.3658 77.7361 52.0204
RightHand  -0.232717 2.92112 -3.45907
LeftUpLeg  -45.7032 28.1891 28.7317
LeftLeg  104.913 2.70826 -10.3029
LeftFoot  45.535 12.4004 -23.2654
LeftToes  -6.27559e-011 -2.10356e-011 8.24929e-012
23
root  -3.2787 41.0676 11.9274 101.986 31.1503 90.6652
RightUpLeg  -12.8545 -21.6692 -42.109
RightLeg  4.81797 14.6155 -5.33273
RightFoot  0.784802 1.46363 -13.5937
RightToes  -1.74623e-010 0 -2.59999e-017
Spine  7.48199 3.85855 8.22118
Spine1  9.52218 16.3417 -40.738
HEad  1.01464 45.2543 -36.1076
LeftShoulder1  2.63505 -3.99506 -29.0952
LeftArm  -13.6126 20.8874 -15.8963
LeftForeArm  127.637 -66.9712 -152.141
LeftHand  -0.402102 3.51884 24.6498
RightShoulder  1.74679 4.79207 14.2015
RightArm  74.0869 44.3276 111.941
RightForeArm  61.5288 77.7988 51.9251
RightHand  -0.0993644 3.49576 -1.54822
LeftUpLeg  -36.7514 18.8851 39.9534
LeftLeg  65.7732 -4.53713 -10.2613
LeftFoot  42.9362 9.73926 -19.3561
LeftToes  -6.27559e-011 -2.10356e-011 8.24929e-012
24
root  -3.27063 41.1742 11.9481 103.394 29.2196 90.0869
RightUpLeg  -13.8751 -24.6311 -43.6973
RightLeg  3.10132 15.1385 -5.11387
RightFoot  2.0435 1.52573 -12.8257
RightToes  -1.74623e-010 0 -2.59999e-017
Spine  7.53215 2.99205 5.99606
Spine1  8.67145 13.8892 -38.191
HEad  -1.62861 45.2215 -37.9537
LeftShoulder1  2.67029 -3.96162 -29.737
LeftArm  -10.349 20.6754 -14.2003
LeftForeArm  126.979 -66.9559 -152.093
LeftHand  -0.398852 3.43856 23.445
RightShoulder  1.86376 5.13352 14.7792
RightArm  69.8129 40.4353 107.391
RightForeArm  68.0334 78.6479 57.3019
RightHand  -0.192805 3.80541 -2.68682
LeftUpLeg  -23.4284 15.7979 43.3925
LeftLeg  15.0848 -5.49066 1.51937
LeftFoot  36.6486 6.59311 -15.269
LeftToes  -6.27559e-011 -2.10356e-011 8.24929e-012
25
root  -3.45638 41.2328 11.4465 106.938 27.2544 92.6536
RightUpLeg  -13.0951 -26.5042 -46.2983
RightLeg  1.76037 11.1629 -5.34467
RightFoot  2.82898 1.54398 -12.207
RightToes  -1.74623e-010 0 -2.59999e-017
Spine  7.90465 1.61672 4.51833
Spine1  6.17402 10.4043 -34.3279
HEad  -0.998314 45.0925 -35.5553
LeftShoulder1  2.74097 -3.99458 -30.5337
LeftArm  -8.8151 20.0796 -12.4772
LeftForeArm  131.519 -65.1329 -154.723
LeftHand  -0.382783 3.4388 22.4776
RightShoulder  1.9582 5.12143 16.0142
RightArm  58.3548 37.0243 94.9187
RightForeArm  91.8491 80.2624 82.0599
RightHand  -0.331073 3.96093 -4.3752
LeftUpLeg  -25.9438 25.7111 39.4291
LeftLeg  4.04436 -8.21819 1.7782
LeftFoot  34.2422 6.24876 -15.3311
LeftToes  -6.27559e-011 -2.10356e-011 8.24929e-012
26
root  -3.79755 41.1472 10.9706 108.439 25.6706 93.3141
RightUpLeg  -12.8208 -25.4381 -47.6314
RightLeg  -0.422806 6.98874 -7.46614
RightFoot  3.67257 1.62964 -12.1579
RightToes  -1.74623e-010 0 -2.59999e-017
Spine  6.71234 1.19001 4.59269
Spine1  7.48954 10.3881 -33.6904
HEad  -2.45075 44.1717 -35.0369
LeftShoulder1  2.58515 -3.9123 -28.8013
LeftArm  -11.1254 17.8135 -14.4444
LeftForeArm  136.408 -63.1937 -157.153
LeftHand  -0.272212 3.95286 21.5356
RightShoulder  2.15271 5.03741 18.7361
RightArm  46.6921 37.0194 81.9407
RightForeArm  115.792 79.7496 108.512
RightHand  -0.379841 3.49082 -5.21534
LeftUpLeg  -36.644 26.1391 39.0656
LeftLeg  36.8034 -4.96862 -3.86383
LeftFoot  37.0407 6.13659 -14.1598
LeftToes  -6.27559e-011 -2.10356e-011 8.24929e-012
27
root  -3.94036 41.3609 9.62591 106.986 26.053 91.424
RightUpLeg  -11.5989 -24.6149 -48.8265
RightLeg  -5.2487 7.04326 -9.04841
RightFoot  5.91687 1.62262 -10.3702
RightToes  -1.74623e-010 0 -2.59999e-017
Spine  4.81285 1.25059 7.68004
Spine1  9.86944 11.4705 -33.8685
HEad  -6.05926 44.0949 -37.8589
LeftShoulder1  2.33336 -3.63266 -26.5801
LeftArm  -15.2725 18.2415 -16.6555
LeftForeArm  138.454 -60.6342 -159.509
LeftHand  -0.190401 4.36513 20.8813
RightShoulder  2.28227 5.02125 20.4305
RightArm  39.8572 38.0016 76.0479
RightForeArm  117.975 79.5422 111.104
RightHand  -0.490805 2.8437 -7.13767
LeftUpLeg  -40.5105 26.3914 40.1834
LeftLeg  67.7769 -2.65257 -6.48451
LeftFoot  39.5381 5.77486 -12.6446
LeftToes  -6.27559e-011 -2.10356e-011 8.24929e-012
28
root  -3.99954 41.2978 9.58093 107.643 26.3518 92.0114
RightUpLeg  -12.5795 -24.9206 -48.6612
RightLeg  -3.08547 6.5027 -8.40392
RightFoot  4.84731 1.54681 -10.6066
RightToes  -1.74623e-010 0 -2.59999e-017
Spine  4.66656 0.526985 7.06426
Spine1  9.89428 10.7322 -33.1084
HEad  -5.69025 44.3183 -38.5765
LeftShoulder1  2.26777 -3.47039 -26.3938
LeftArm  -17.6128 19.5918 -16.5437
LeftForeArm  139.44 -57.981 -161.505
LeftHand  -0.233136 4.10322 20.4831
RightShoulder  2.24074 4.88604 20.3615
RightArm  36.2223 36.9418 73.5183
RightForeArm  120.674 79.413 113.274
RightHand  -0.607857 2.52898 -9.10699
LeftUpLeg  -44.8754 27.5354 37.6122
LeftLeg  92.9854 0.385635 -7.5386
LeftFoot  40.7031 6.09684 -12.9987
LeftToes  -6.27559e-011 -2.10356e-011 8.24929e-012
29
root  -4.22822 41.2156 9.23595 110.28 27.4123 95.2428
RightUpLeg  -13.446 -25.0703 -48.418
RightLeg  1.82475 4.40942 -7.47413
RightFoot  2.75476 1.38287 -10.9879
RightToes  -1.74623e-010 0 -2.59999e-017
Spine  4.73582 -0.101328 7.50543
Spine1  9.8444 9.81153 -30.9527
HEad  -2.535 43.7916 -36.1652
LeftShoulder1  2.25273 -3.4365 -26.3323
LeftArm  -18.9631 17.1712 -15.9494
LeftForeArm  141.837 -56.0997 -162.876
LeftHand  -0.268153 3.83713 19.57
RightShoulder  2.26955 4.87767 20.76
RightArm  33.2547 36.5923 70.6674
RightForeArm  129.983 78.3256 123.447
RightHand  -0.611712 2.5791 -9.1114
LeftUpLeg  -49.3778 30.0682 31.2183
LeftLeg  115.26 3.35288 -7.0799
LeftFoot  42.6183 6.76554 -13.801
LeftToes  -6.27559e-011 -2.10356e-011 8.24929e-012
30
root  -4.35074 41.0083 9.18003 112.809 29.7672 98.9014
RightUpLeg  -13.6729 -23.5359 -46.3838
RightLeg  6.38253 1.05438 -6.94325
RightFoot  0.353206 1.16705 -11.3114
RightToes  -1.74623e-010 0 -2.59999e-017
Spine  5.05897 -0.365195 9.64042
Spine1  10.9896 10.2111 -30.1782
HEad  -1.14094 43.5449 -34.5906
LeftShoulder1  2.16401 -3.29841 -25.6608
LeftArm  -20.9262 13.7059 -15.3942
LeftForeArm  143.465 -54.6037 -163.853
LeftHand  -0.22683 4.0126 18.5145
RightShoulder  2.38496 5.0677 21.5587
RightArm  32.5196 37.6627 70.6054
RightForeArm  132.831 77.8448 126.695
RightHand  -0.566382 2.35686 -8.68199
LeftUpLeg  -50.7342 34.5127 24.3879
LeftLeg  130.104 5.19012 -6.15114
LeftFoot  44.3455 9.37622 -18.1932
LeftToes  -6.27559e-011 -2.10356e-011 8.24929e-012
